/* XPM */
static char *gamgi[] = {
/* columns rows colors chars-per-pixel */
"32 32 177 2",
"   c #3E403C",
".  c #6F4C27",
"X  c #2F5E71",
"o  c #434542",
"O  c #5A5B57",
"+  c #5B5E5A",
"@  c #6C4F4C",
"#  c #61514E",
"$  c #7C5E5A",
"%  c #5A6D49",
"&  c #5B6056",
"*  c #5E615B",
"=  c #60625E",
"-  c #79605C",
";  c #6B7B5C",
":  c #41566F",
">  c #566262",
",  c #5C656C",
"<  c #786763",
"1  c #616C73",
"2  c #737571",
"3  c #7A7F77",
"4  c #7B7E7A",
"5  c #9A1312",
"6  c #A70202",
"7  c #A90303",
"8  c #AA0D0D",
"9  c #BB2424",
"0  c #BD2B2B",
"q  c #B63635",
"w  c #B93938",
"e  c #DF392A",
"r  c #EF2E2E",
"t  c #EF3434",
"y  c #EF3F3E",
"u  c #F03636",
"i  c #F03C3C",
"p  c #804805",
"a  c #9F672C",
"s  c #B1682D",
"d  c #B2763B",
"f  c #E0493A",
"g  c #B0504F",
"h  c #816764",
"j  c #AB6563",
"k  c #D24544",
"l  c #D35353",
"z  c #F14545",
"x  c #F14C4B",
"c  c #E25B5B",
"v  c #F25454",
"b  c #F25B5B",
"n  c #E26261",
"m  c #E26C6C",
"M  c #F36363",
"N  c #F46A6A",
"B  c #E37474",
"V  c #EE7474",
"C  c #F57575",
"Z  c #F57978",
"A  c #529D0A",
"S  c #589B0D",
"D  c #698613",
"F  c #748612",
"G  c #748915",
"H  c #768C18",
"J  c #57A012",
"K  c #59A112",
"L  c #63AD1A",
"P  c #588029",
"I  c #769320",
"U  c #63A621",
"Y  c #6FAC29",
"T  c #72AE2C",
"R  c #6EB12A",
"E  c #70B42E",
"W  c #72AE39",
"Q  c #7BC731",
"!  c #6E805C",
"~  c #70805F",
"^  c #738066",
"/  c #6EA177",
"(  c #90E33F",
")  c #AF9358",
"_  c #8EAF6E",
"`  c #88B062",
"'  c #95B378",
"]  c #89C749",
"[  c #8BC84D",
"{  c #8DCB51",
"}  c #95D359",
"|  c #93E443",
" . c #96E54A",
".. c #99E54D",
"X. c #9CE653",
"o. c #A2E85E",
"O. c #9DD962",
"+. c #A3DA6D",
"@. c #A3E761",
"#. c #ABEA6E",
"$. c #ACE971",
"%. c #B0E67B",
"&. c #B3EC7C",
"*. c #244E8A",
"=. c #2C5584",
"-. c #2C548E",
";. c #305282",
":. c #3E6F81",
">. c #4E6780",
",. c #466D9E",
"<. c #4E719F",
"1. c #627F9A",
"2. c #456DA1",
"3. c #496FA3",
"4. c #5274A2",
"5. c #67829C",
"6. c #6086B7",
"7. c #648AB6",
"8. c #688CB9",
"9. c #6495CA",
"0. c #6E9CCE",
"q. c #7A9EC6",
"w. c #729FCF",
"e. c #74A1CF",
"r. c #7FA1C8",
"t. c #76A2D1",
"y. c #7CA6D2",
"u. c #7FA8D3",
"i. c #8D8F8B",
"p. c #918D8A",
"a. c #8B9087",
"s. c #8E918B",
"d. c #91928E",
"f. c #8E9191",
"g. c #919491",
"h. c #95A8BD",
"j. c #A5A7A2",
"k. c #AFB2AD",
"l. c #BDBEBB",
"z. c #C78783",
"x. c #CF8E8C",
"c. c #F68282",
"v. c #F08E8E",
"b. c #F79696",
"n. c #F79B9B",
"m. c #A8C789",
"M. c #B8EE85",
"N. c #BDEF8D",
"B. c #BFC0BD",
"V. c #C1C3BF",
"C. c #82A3CA",
"Z. c #9BADC2",
"A. c #83ABD5",
"S. c #8BB0D7",
"D. c #94B3D7",
"F. c #93B4D9",
"G. c #97B8DB",
"H. c #9CBADB",
"J. c #A2C0DF",
"K. c #A4C1E0",
"L. c #C2C3C1",
"P. c #D9DCD7",
"I. c #D4DBDD",
"U. c #DCDEDA",
"Y. c #E1D2CF",
"T. c #DEE1DB",
"R. c #E1E3DE",
"E. c #E3E6E1",
"W. c #E6E8E4",
"Q. c #E8EAE6",
"!. c #ECEEEA",
"~. c #EFF0ED",
"^. c #F0F1EF",
"/. c #F3F4F2",
"(. c #F7F8F6",
"). c #F8F9F8",
"_. c None",
/* pixels */
"_._._._._._._._._._._._._._._._._._._.7 7 7 7 _._._._._._._._._.",
"_._._._._._._._._._._._._._._._._.7 e B b.v.m e 7 _._._._._._._.",
"_._._._._._._._._._._._._._._._.7 l n.B C M N c.k 7 _._._._._._.",
"_._._._._._.* O = = _._._._._._.0 b.V Z Z N b x c.9 _._._._._._.",
"_._._._.+ g.U././.U.i.# * O O @ j C N Z Z N v x v c 7 _._._._._.",
"_._._.+ L.)./.!.!.R.1.p.U././.T.f.$ n N N b v z z V 7 _._._._._.",
"_._._.d.).!./.!.Q.^ B.(.~.Q.Q.Q./.l.$ v b v x f t V 7 _._._._._.",
"_._.= U./.~.(./.k.f.(.Q.~.~.!.W.E./.i.% G s f t z c 7 _._._._._.",
"_._.O /.Q.~.~.~.^ U.~.!.~./.~.Q.R.W.P.^ +.T F e Z 9 _._._._._._.",
"_._.O /.Q.Q.Q.W.* /.Q.!./.~.~.Q.R.R.^.& #.N.[ I k 7 _._._._._._.",
"_._.* U.Q.T.E.m.O ^.W.Q.~.~.!.E.R.R.^.* o.X.M.Y p _._._._._._._.",
"_._._.i./.T.U.W ; U.Q.E.E.W.E.T.T.R.U.; o...o.O.A _._._._._._._.",
"_._._.+ l./.E.J _ s./.T.T.E.T.T.P.^.a.` o.X. .%.A O O = _._._._.",
"_._._._.O i.U.K M.; B./.E.T.T.E.^.B.% o.X. . .%.J /.^.P.i.+ _._.",
"_._._._._._.: X =.=.* a.U.~.~.U.s.; U X...| X.O.D Y.W.Q./.l.+ _.",
"_._._._._.*.2.C.G.G.r.>.> * & ! ' E Q  .| ( &.T a q Q.E.R./.i._.",
"_._._._.*.8.K.S.u.y.A.H.7.:.$.N.{ L  .| X.&.] G Z 0 x.W.R.W.P.+ ",
"_._._._.,.J.y.u.A.y.w.0.G.2./ R K } %.%.O.E G f x c w W.T.T.~.O ",
"_._._.;.r.A.y.A.A.u.5.1 > + + . ) I S S I d x i i V 8 W.R.P.~.O ",
"_._.+ -.D.t.t.u.q.1 f.U.(./.R.a.< n M M M v z i u V 8 R.P.E.P.* ",
"_._.d.-.F.w.0.t.1 L.(.!.Q.Q.Q.(.B.- v v v z i t z c q P.U./.i._.",
"_.= E.4.q.t.9.1.g.(.!.!.~.!.W.R./.d.g z z i t r Z 0 z.E./.l.+ _.",
"_.O /.Z.3.F.9.1 T.!.!././.~.Q.E.W.T.h v i i z Z k q !.U.s.+ _._.",
"_.O /.!.3.6.S.= /.Q.!././.~.Q.R.R.^.O c V V c 9 5 # O * _._._._.",
"_.= Y.~.I.<.3.+ /.Q.Q.!.!.!.W.T.P.~.O 7 7 7 7 _._._._._._._._._.",
"_._.' /.E.E.h., U.!.E.W.W.E.T.T.E.U.= _._._._._._._._._._._._._.",
"_._.+ K.(.Q.R.j.g./.R.T.T.T.T.P./.d._._._._._._._._._._._._._._.",
"_._._.* f.Y.^.^.2 L./.Q.T.T.R./.B.+ _._._._._._._._._._._._._._.",
"_._._._._.= + O O O s.U./.!.U.s.O _._._._._._._._._._._._._._._.",
"_._._._._._._._._._.o O O O O   _._._._._._._._._._._._._._._._.",
"_._._._._._._._._._._._._._._._._._._._._._._._._._._._._._._._.",
"_._._._._._._._._._._._._._._._._._._._._._._._._._._._._._._._."
};
